<svg width="263" height="51" viewBox="0 0 263 51" fill="none" xmlns="http://www.w3.org/2000/svg">
<path d="M9.66709 25.5C9.66709 27.8906 10.0699 30.0953 10.8755 32.1141C11.6811 34.0797 12.7552 35.8063 14.0978 37.2938C15.4405 38.7281 16.998 39.8438 18.7703 40.6406C20.5963 41.4375 22.5297 41.8359 24.5705 41.8359C26.2891 41.8359 27.8466 41.5969 29.2429 41.1188C30.6393 40.5875 31.8745 39.9234 32.9486 39.1266C34.0765 38.2766 34.9895 37.3469 35.6876 36.3375C36.4395 35.275 37.0303 34.1859 37.4599 33.0703H47.5298C46.939 35.4609 45.9723 37.7453 44.6297 39.9234C43.287 42.1016 41.6222 44.0141 39.635 45.6609C37.7016 47.2547 35.446 48.5563 32.8681 49.5656C30.3439 50.5219 27.578 51 24.5705 51C21.2407 51 18.0721 50.3625 15.0645 49.0875C12.1107 47.7594 9.50597 45.9531 7.25031 43.6688C5.04837 41.3313 3.27607 38.6219 1.93342 35.5406C0.644471 32.4594 0 29.1125 0 25.5C0 21.9406 0.644471 18.6203 1.93342 15.5391C3.27607 12.4047 5.04837 9.69531 7.25031 7.41094C9.50597 5.07344 12.1107 3.26719 15.0645 1.99219C18.0721 0.664064 21.2407 0 24.5705 0C27.4706 0 30.1559 0.504688 32.6264 1.51406C35.1506 2.47031 37.3794 3.77187 39.3128 5.41875C41.2462 7.0125 42.8842 8.89844 44.2269 11.0766C45.5695 13.2547 46.5363 15.5391 47.127 17.9297H37.0571C36.7349 16.8141 36.2247 15.7516 35.5265 14.7422C34.8283 13.6797 33.9422 12.75 32.8681 11.9531C31.8477 11.1031 30.6393 10.4391 29.2429 9.96094C27.8466 9.42969 26.2891 9.16406 24.5705 9.16406C22.5297 9.16406 20.5963 9.5625 18.7703 10.3594C16.998 11.1563 15.4405 12.2984 14.0978 13.7859C12.7552 15.2203 11.6811 16.9469 10.8755 18.9656C10.0699 20.9313 9.66709 23.1094 9.66709 25.5Z" fill="white"/>
<path d="M71.6597 13.5469C73.6469 13.5469 75.4997 13.9187 77.2183 14.6625C78.9906 15.3531 80.4944 16.3891 81.7296 17.7703C82.9649 19.0984 83.9316 20.7188 84.6298 22.6313C85.3816 24.5438 85.7576 26.6953 85.7576 29.0859V50.6016H76.4933V30.2813C76.4933 27.8906 75.7683 25.9781 74.3182 24.5438C72.9218 23.0563 71.0959 22.3125 68.8402 22.3125C66.5845 22.3125 64.7317 23.0563 63.2816 24.5438C61.8853 25.9781 61.1871 27.8906 61.1871 30.2813V50.6016H51.9228V0.398437H61.1871V17.5313C61.8853 16.7875 62.7177 16.1234 63.6844 15.5391C64.5437 15.0609 65.6178 14.6094 66.9068 14.1844C68.2494 13.7594 69.8337 13.5469 71.6597 13.5469Z" fill="white"/>
<path d="M109.554 13.5469C109.984 13.5469 110.36 13.5734 110.682 13.6266C111.004 13.6797 111.299 13.7328 111.568 13.7859C111.836 13.8391 112.105 13.8922 112.374 13.9453V23.5078C112.105 23.4547 111.81 23.4016 111.487 23.3484C111.219 23.2953 110.87 23.2422 110.44 23.1891C110.064 23.1359 109.635 23.1094 109.151 23.1094C106.896 23.1094 105.043 23.8531 103.593 25.3406C102.196 26.775 101.498 28.6875 101.498 31.0781V50.6016H92.2338V13.9453H99.0813L100.692 17.9297C101.337 17.1328 102.116 16.4156 103.029 15.7781C103.781 15.1938 104.694 14.6891 105.768 14.2641C106.896 13.7859 108.158 13.5469 109.554 13.5469Z" fill="white"/>
<path d="M123.274 32.2734C123.274 35.3016 124.16 37.7188 125.933 39.525C127.705 41.3313 129.907 42.2344 132.538 42.2344C135.17 42.2344 137.372 41.3313 139.144 39.525C140.917 37.7188 141.803 35.3016 141.803 32.2734C141.803 29.2453 140.917 26.8281 139.144 25.0219C137.372 23.2156 135.17 22.3125 132.538 22.3125C129.907 22.3125 127.705 23.2156 125.933 25.0219C124.16 26.8281 123.274 29.2453 123.274 32.2734ZM151.067 32.2734C151.067 34.8766 150.557 37.3203 149.536 39.6047C148.57 41.8359 147.227 43.8016 145.508 45.5016C143.844 47.2016 141.883 48.5563 139.628 49.5656C137.426 50.5219 135.063 51 132.538 51C130.014 51 127.624 50.5219 125.369 49.5656C123.167 48.5563 121.206 47.2016 119.488 45.5016C117.823 43.8016 116.48 41.8359 115.46 39.6047C114.493 37.3203 114.01 34.8766 114.01 32.2734C114.01 29.6703 114.493 27.2531 115.46 25.0219C116.48 22.7375 117.823 20.7453 119.488 19.0453C121.206 17.3453 123.167 16.0172 125.369 15.0609C127.624 14.0516 130.014 13.5469 132.538 13.5469C135.063 13.5469 137.426 14.0516 139.628 15.0609C141.883 16.0172 143.844 17.3453 145.508 19.0453C147.227 20.7453 148.57 22.7375 149.536 25.0219C150.557 27.2531 151.067 29.6703 151.067 32.2734Z" fill="white"/>
<path d="M174.794 13.5469C176.996 13.5469 179.01 13.9187 180.836 14.6625C182.662 15.3531 184.22 16.3891 185.509 17.7703C186.851 19.0984 187.872 20.7188 188.57 22.6313C189.322 24.5438 189.698 26.6953 189.698 29.0859V50.6016H180.433V30.2813C180.433 27.8906 179.708 25.9781 178.258 24.5438C176.862 23.0563 175.036 22.3125 172.78 22.3125C170.525 22.3125 168.672 23.0563 167.222 24.5438C165.825 25.9781 165.127 27.8906 165.127 30.2813V50.6016H155.863V13.9453H162.71L164.322 17.5313C165.235 16.7875 166.228 16.1234 167.302 15.5391C168.215 15.0609 169.289 14.6094 170.525 14.1844C171.813 13.7594 173.237 13.5469 174.794 13.5469Z" fill="white"/>
<path d="M203.424 32.2734C203.424 35.3016 204.31 37.7188 206.083 39.525C207.855 41.3313 210.057 42.2344 212.688 42.2344C215.32 42.2344 217.522 41.3313 219.294 39.525C221.067 37.7188 221.953 35.3016 221.953 32.2734C221.953 29.2453 221.067 26.8281 219.294 25.0219C217.522 23.2156 215.32 22.3125 212.688 22.3125C210.057 22.3125 207.855 23.2156 206.083 25.0219C204.31 26.8281 203.424 29.2453 203.424 32.2734ZM231.217 32.2734C231.217 34.8766 230.707 37.3203 229.686 39.6047C228.72 41.8359 227.377 43.8016 225.658 45.5016C223.993 47.2016 222.033 48.5563 219.778 49.5656C217.576 50.5219 215.213 51 212.688 51C210.164 51 207.774 50.5219 205.519 49.5656C203.317 48.5563 201.356 47.2016 199.638 45.5016C197.973 43.8016 196.63 41.8359 195.61 39.6047C194.643 37.3203 194.16 34.8766 194.16 32.2734C194.16 29.6703 194.643 27.2531 195.61 25.0219C196.63 22.7375 197.973 20.7453 199.638 19.0453C201.356 17.3453 203.317 16.0172 205.519 15.0609C207.774 14.0516 210.164 13.5469 212.688 13.5469C215.213 13.5469 217.576 14.0516 219.778 15.0609C222.033 16.0172 223.993 17.3453 225.658 19.0453C227.377 20.7453 228.72 22.7375 229.686 25.0219C230.707 27.2531 231.217 29.6703 231.217 32.2734Z" fill="white"/>
<path d="M242.86 39.0469C243.075 40.2688 243.666 41.3047 244.633 42.1547C245.599 43.0047 246.888 43.4297 248.499 43.4297C250.111 43.4297 251.373 43.0313 252.286 42.2344C253.252 41.3844 253.736 40.4547 253.736 39.4453C253.736 38.5953 253.252 37.9313 252.286 37.4531C251.373 36.975 250.218 36.55 248.822 36.1781C247.425 35.7531 245.895 35.3281 244.23 34.9031C242.619 34.4781 241.115 33.8672 239.718 33.0703C238.322 32.2203 237.141 31.1578 236.174 29.8828C235.261 28.5547 234.804 26.8281 234.804 24.7031C234.804 23.2156 235.1 21.8078 235.691 20.4797C236.335 19.0984 237.248 17.9031 238.429 16.8938C239.611 15.8844 241.007 15.0875 242.619 14.5031C244.23 13.8656 246.056 13.5469 248.097 13.5469C252.554 13.5469 255.964 14.6094 258.328 16.7344C260.744 18.8594 262.168 21.5156 262.597 24.7031H253.736C253.521 23.9063 252.93 23.1094 251.963 22.3125C251.05 21.5156 249.896 21.1172 248.499 21.1172C247.103 21.1172 246.002 21.4625 245.196 22.1531C244.445 22.8438 244.069 23.6938 244.069 24.7031C244.069 25.5531 244.525 26.2172 245.438 26.6953C246.405 27.1734 247.586 27.625 248.983 28.05C250.379 28.4219 251.883 28.8469 253.494 29.325C255.159 29.75 256.69 30.3875 258.086 31.2375C259.482 32.0875 260.637 33.2031 261.55 34.5844C262.517 35.9125 263 37.6656 263 39.8438C263 41.3313 262.678 42.7656 262.033 44.1469C261.389 45.475 260.476 46.6438 259.294 47.6531C258.113 48.6625 256.663 49.4859 254.944 50.1234C253.279 50.7078 251.4 51 249.305 51C244.471 51 240.793 49.9109 238.268 47.7328C235.798 45.5547 234.375 42.6594 233.999 39.0469H242.86Z" fill="white"/>
</svg>
